<svg width="704" height="105" viewBox="0 0 704 105" fill="none" xmlns="http://www.w3.org/2000/svg">
<path d="M0.32138 102H26.5021V76.5269H40.9368C66.4099 76.5269 80.1371 61.5261 80.1371 39.7324C80.1371 17.9388 66.4099 2.93792 40.9368 2.93792H0.32138V102ZM38.8141 27.2789C47.5881 27.2789 52.5412 31.949 52.5412 39.7324C52.5412 47.5159 47.5881 52.1859 38.8141 52.1859H26.5021V27.2789H38.8141ZM119.013 52.469C119.013 83.0367 140.1 104.123 168.828 104.123C197.556 104.123 218.642 83.0367 218.642 52.469C218.642 21.9012 197.556 0.815167 168.828 0.815167C140.1 0.815167 119.013 21.9012 119.013 52.469ZM146.609 52.469C146.609 36.7605 155.808 25.8637 168.828 25.8637C181.847 25.8637 191.046 36.7605 191.046 52.469C191.046 68.1774 181.847 79.0742 168.828 79.0742C155.808 79.0742 146.609 68.1774 146.609 52.469ZM254.754 90.5371C266.075 99.0281 281.501 104.123 295.652 104.123C321.692 104.123 335.985 90.3956 335.985 72.5644C335.985 56.9975 326.786 46.5252 302.021 39.8739C288.577 36.336 285.746 33.5057 285.746 30.5338C285.746 27.4204 288.435 24.7316 296.926 24.7316C305.276 24.7316 314.757 27.4204 320.984 31.5244L331.315 9.87227C321.267 4.21158 310.37 0.815167 297.634 0.815167C273.717 0.815167 259.707 15.6745 259.707 31.6659C259.707 46.3837 268.34 57.5636 293.247 64.3564C304.851 67.4698 307.823 70.3001 307.823 74.1211C307.823 77.8006 304.709 80.3479 296.785 80.3479C285.322 80.3479 273.859 75.2532 266.358 68.7434L254.754 90.5371ZM379.184 102H449.943V77.659H405.365V63.2243H442.725V40.8645H405.365V27.2789H449.235V2.93792H379.184V102ZM496.627 102H522.807V69.451H530.449L547.856 102H578.565L556.206 66.1961C568.518 61.243 575.027 50.4877 575.027 36.9021C575.027 16.8066 562.149 2.93792 537.95 2.93792H496.627V102ZM535.827 27.2789C543.327 27.2789 547.431 30.8168 547.431 36.9021C547.431 42.8458 543.327 46.5252 535.827 46.5252H522.807V27.2789H535.827ZM621.671 102H647.851V69.451H655.493L672.9 102H703.609L681.249 66.1961C693.561 61.243 700.071 50.4877 700.071 36.9021C700.071 16.8066 687.193 2.93792 662.994 2.93792H621.671V102ZM660.871 27.2789C668.371 27.2789 672.475 30.8168 672.475 36.9021C672.475 42.8458 668.371 46.5252 660.871 46.5252H647.851V27.2789H660.871Z" fill="black"/>
</svg>
